<svg width="18" height="18" viewBox="0 0 18 18" fill="none" xmlns="http://www.w3.org/2000/svg">
    <circle opacity="0.2" cx="9" cy="9" r="9" fill="#95C8D0"/>
    <mask id="path-2-outside-1_2100_39244" maskUnits="userSpaceOnUse" x="5.5" y="5.5" width="8" height="7" fill="black">
    <rect fill="white" x="5.5" y="5.5" width="8" height="7"/>
    <path d="M13.1035 6.30273C13.1882 6.38086 13.2337 6.47852 13.2402 6.5957C13.2533 6.70638 13.224 6.80404 13.1523 6.88867L8.98242 11.8887C8.94336 11.9408 8.89453 11.9798 8.83594 12.0059C8.78385 12.0319 8.72852 12.0449 8.66992 12.0449C8.63086 12.0449 8.58854 12.0384 8.54297 12.0254C8.50391 12.0124 8.4681 11.9961 8.43555 11.9766L5.93555 10.3066C5.83789 10.2415 5.77604 10.1536 5.75 10.043C5.73047 9.92578 5.75326 9.82161 5.81836 9.73047C5.88346 9.63281 5.97135 9.57422 6.08203 9.55469C6.19922 9.52865 6.30339 9.54818 6.39453 9.61328L8.58203 11.0684L12.5176 6.36133C12.5892 6.27018 12.6803 6.22135 12.791 6.21484C12.9082 6.20182 13.0124 6.23112 13.1035 6.30273Z"/>
    </mask>
    <path d="M13.1035 6.30273C13.1882 6.38086 13.2337 6.47852 13.2402 6.5957C13.2533 6.70638 13.224 6.80404 13.1523 6.88867L8.98242 11.8887C8.94336 11.9408 8.89453 11.9798 8.83594 12.0059C8.78385 12.0319 8.72852 12.0449 8.66992 12.0449C8.63086 12.0449 8.58854 12.0384 8.54297 12.0254C8.50391 12.0124 8.4681 11.9961 8.43555 11.9766L5.93555 10.3066C5.83789 10.2415 5.77604 10.1536 5.75 10.043C5.73047 9.92578 5.75326 9.82161 5.81836 9.73047C5.88346 9.63281 5.97135 9.57422 6.08203 9.55469C6.19922 9.52865 6.30339 9.54818 6.39453 9.61328L8.58203 11.0684L12.5176 6.36133C12.5892 6.27018 12.6803 6.22135 12.791 6.21484C12.9082 6.20182 13.0124 6.23112 13.1035 6.30273Z" fill="#4A9E8A"/>
    <path d="M13.1035 6.30273L13.2392 6.15577L13.2333 6.15038L13.2271 6.14547L13.1035 6.30273ZM13.2402 6.5957L13.0402 6.60682L13.0416 6.61907L13.2402 6.5957ZM13.1523 6.88867L12.9997 6.75948L12.9987 6.76058L13.1523 6.88867ZM8.98242 11.8887L8.82862 11.7604L8.82242 11.7687L8.98242 11.8887ZM8.83594 12.0059L8.75463 11.8229L8.74649 11.827L8.83594 12.0059ZM8.54297 12.0254L8.47966 12.2153L8.48802 12.2177L8.54297 12.0254ZM8.43555 11.9766L8.32433 12.1431L8.33265 12.1481L8.43555 11.9766ZM5.93555 10.3066L6.04664 10.1403L6.04649 10.1402L5.93555 10.3066ZM5.75 10.043L5.55229 10.0759L5.55532 10.0888L5.75 10.043ZM5.81836 9.73047L5.98119 9.84678L5.98477 9.84141L5.81836 9.73047ZM6.08203 9.55469L6.11682 9.75183L6.12542 9.74993L6.08203 9.55469ZM6.39453 9.61328L6.27822 9.77612L6.28376 9.77981L6.39453 9.61328ZM8.58203 11.0684L8.47126 11.2349L8.6205 11.3342L8.73547 11.1966L8.58203 11.0684ZM12.5176 6.36133L12.6711 6.48967L12.6748 6.48489L12.5176 6.36133ZM12.791 6.21484L12.8028 6.41477L12.8131 6.41362L12.791 6.21484ZM12.9679 6.4497C13.0135 6.49183 13.0369 6.5404 13.0405 6.6068L13.4399 6.58461C13.4306 6.41663 13.3628 6.26989 13.2392 6.15577L12.9679 6.4497ZM13.0416 6.61907C13.0482 6.67505 13.0353 6.71739 12.9997 6.75948L13.305 7.01786C13.4126 6.89068 13.4583 6.73771 13.4389 6.57233L13.0416 6.61907ZM12.9987 6.76058L8.82883 11.7606L9.13602 12.0168L13.3059 7.01677L12.9987 6.76058ZM8.82242 11.7687C8.8035 11.7939 8.78163 11.8111 8.75471 11.8231L8.91717 12.1886C9.00744 12.1485 9.08321 12.0876 9.14242 12.0087L8.82242 11.7687ZM8.74649 11.827C8.72236 11.839 8.69767 11.8449 8.66992 11.8449V12.2449C8.75936 12.2449 8.84535 12.2248 8.92538 12.1847L8.74649 11.827ZM8.66992 11.8449C8.6529 11.8449 8.62928 11.842 8.59791 11.8331L8.48802 12.2177C8.5478 12.2348 8.60882 12.2449 8.66992 12.2449V11.8449ZM8.60621 11.8357C8.57984 11.8269 8.55748 11.8165 8.53845 11.8051L8.33265 12.1481C8.37872 12.1757 8.42797 12.1979 8.47972 12.2151L8.60621 11.8357ZM8.54664 11.8103L6.04664 10.1403L5.82446 10.473L8.32446 12.1429L8.54664 11.8103ZM6.04649 10.1402C5.98952 10.1023 5.9587 10.0567 5.94468 9.99716L5.55532 10.0888C5.59338 10.2506 5.68626 10.3808 5.82461 10.4731L6.04649 10.1402ZM5.94728 10.0101C5.93588 9.9417 5.94885 9.89188 5.98111 9.84672L5.65561 9.61422C5.55766 9.75135 5.52506 9.90986 5.55272 10.0758L5.94728 10.0101ZM5.98477 9.84141C6.02108 9.78694 6.06252 9.76122 6.11679 9.75164L6.04727 9.35773C5.88019 9.38722 5.74584 9.47869 5.65195 9.61953L5.98477 9.84141ZM6.12542 9.74993C6.19167 9.7352 6.23693 9.74649 6.27828 9.77603L6.51078 9.45053C6.36984 9.34986 6.20677 9.32209 6.03865 9.35945L6.12542 9.74993ZM6.28376 9.77981L8.47126 11.2349L8.6928 10.9018L6.5053 9.44676L6.28376 9.77981ZM8.73547 11.1966L12.671 6.48962L12.3641 6.23304L8.4286 10.9401L8.73547 11.1966ZM12.6748 6.48489C12.7129 6.43644 12.7521 6.41748 12.8028 6.4145L12.7793 6.01519C12.6085 6.02523 12.4655 6.10392 12.3603 6.23776L12.6748 6.48489ZM12.8131 6.41362C12.8792 6.40628 12.9308 6.4214 12.98 6.46L13.2271 6.14547C13.0939 6.04084 12.9372 5.99737 12.7689 6.01607L12.8131 6.41362Z" fill="white" mask="url(#path-2-outside-1_2100_39244)"/>
    </svg>
    