<svg width="21" height="20" viewBox="0 0 21 20" fill="none" xmlns="http://www.w3.org/2000/svg">
    <path d="M6.33398 7.08322L8.78566 8.53275C10.215 9.37782 10.7863 9.37782 12.2156 8.53275L14.6673 7.08322" stroke="#004D5A" stroke-width="1.5" stroke-linecap="round" stroke-linejoin="round"/>
    <path d="M2.18111 11.2296C2.23559 13.7842 2.26283 15.0615 3.20543 16.0077C4.14804 16.9539 5.45991 16.9869 8.08366 17.0528C9.70073 17.0934 11.3019 17.0934 12.9189 17.0528C15.5427 16.9869 16.8546 16.9539 17.7972 16.0077C18.7398 15.0615 18.767 13.7842 18.8215 11.2296C18.839 10.4082 18.839 9.59164 18.8215 8.77024C18.767 6.21563 18.7398 4.93833 17.7972 3.99213C16.8546 3.04594 15.5427 3.01298 12.919 2.94705C11.3019 2.90642 9.70073 2.90642 8.08365 2.94705C5.45991 3.01297 4.14804 3.04593 3.20543 3.99212C2.26282 4.93831 2.23558 6.21562 2.18111 8.77023C2.16359 9.59164 2.16359 10.4082 2.18111 11.2296Z" stroke="#004D5A" stroke-width="1.5" stroke-linejoin="round"/>
    </svg>
    