<svg width="26" height="26" viewBox="0 0 26 26" fill="none" xmlns="http://www.w3.org/2000/svg">
    <path d="M13 23.8334C7.01693 23.8334 2.16669 18.9831 2.16669 13.0001C2.16669 7.01699 7.01693 2.16675 13 2.16675C18.9831 2.16675 23.8334 7.01699 23.8334 13.0001C23.8334 18.9831 18.9831 23.8334 13 23.8334ZM13 21.6667C17.7865 21.6667 21.6667 17.7866 21.6667 13.0001C21.6667 8.21361 17.7865 4.33341 13 4.33341C8.21355 4.33341 4.33335 8.21361 4.33335 13.0001C4.33335 17.7866 8.21355 21.6667 13 21.6667ZM11.9167 7.58341H14.0834V9.75008H11.9167V7.58341ZM11.9167 11.9167H14.0834V18.4167H11.9167V11.9167Z" fill="#417AC8"/>
    </svg>
    