<svg width="638" height="464" viewBox="0 0 638 464" fill="none" xmlns="http://www.w3.org/2000/svg">
    <g opacity="0.7" filter="url(#filter0_d_2100_37574)">
    <rect x="22" y="15" width="580" height="424" rx="24" fill="white" shape-rendering="crispEdges"/>
    <rect x="23" y="16" width="578" height="422" rx="23" stroke="#F8F8F8" stroke-width="2" shape-rendering="crispEdges"/>
    <circle cx="559" cy="38" r="3" fill="#00AF6C"/>
    <circle cx="569" cy="38" r="3" fill="#DDDDDD"/>
    <circle cx="579" cy="38" r="3" fill="#F55157"/>
    <path d="M32 59C32 54.5817 35.5817 51 40 51H584C588.418 51 592 54.5817 592 59V91H32V59Z" fill="#F8F8F8"/>
    <path d="M527.714 74.087L527.901 74.12L527.868 74.967L527.681 75C526.9 75 526.273 74.659 525.987 74.054C525.701 74.56 525.019 75.044 524.04 75.044C522.962 75.044 522.247 74.571 522.027 73.79C520.916 74.021 520.663 74.186 520.663 74.714V78.476H519.937V74.802C519.937 73.724 520.388 73.24 521.972 72.855C522.137 71.656 523.039 70.721 524.26 70.721C525.294 70.721 526.009 71.458 526.372 72.932C526.592 73.834 526.955 74.087 527.714 74.087ZM524.128 74.142C525.074 74.142 525.558 73.735 525.723 73.35C525.492 72.316 524.997 71.623 524.15 71.623C523.292 71.623 522.665 72.261 522.665 73.119C522.665 73.724 523.193 74.142 524.128 74.142ZM531.02 74.087H533.209V75H527.676L527.489 74.923L527.511 74.197L527.709 74.087H529.161C528.71 73.746 528.435 73.218 528.435 72.503C528.435 71.282 529.326 70.061 530.8 70.061C531.856 70.061 532.505 70.787 532.758 71.205L532.274 71.766C531.944 71.425 531.416 70.974 530.679 70.974C529.777 70.974 529.15 71.656 529.15 72.47C529.15 73.548 530.118 74.087 531.02 74.087ZM540.514 74.087L540.701 74.12L540.668 74.967L540.481 75C539.414 75 538.952 74.527 538.556 73.735C538.259 74.615 537.478 75.099 536.268 75.099C534.178 75.099 533.925 73.911 534.002 72.712L534.673 72.679C534.607 73.966 535.322 74.186 536.345 74.186C537.39 74.186 538.116 73.757 538.138 72.987L536.543 69.621L537.269 69.291L538.974 72.855C539.392 73.724 539.634 74.087 540.514 74.087ZM541.878 67.267H542.604V72.855C542.604 74.384 541.68 75 540.481 75L540.294 74.967L540.327 74.12L540.514 74.087C541.317 74.087 541.878 73.933 541.878 72.987V67.267ZM545.085 75H544.359V67.267H545.085V75ZM553.835 74.087H556.64L556.827 74.12L556.794 74.967L556.607 75H556.354C556.343 76.342 555.122 77.64 552.515 77.64C550.315 77.64 549.072 76.375 549.072 74.472C549.072 73.471 549.358 72.514 549.666 71.799L550.304 72.03C549.974 72.767 549.787 73.702 549.787 74.318C549.787 75.946 550.854 76.727 552.625 76.727C554.726 76.727 555.595 75.759 555.628 75H553.835V74.087ZM552.042 78.487C552.328 78.487 552.537 78.718 552.537 78.993C552.537 79.268 552.339 79.499 552.042 79.499C551.767 79.499 551.536 79.268 551.536 78.993C551.536 78.718 551.767 78.487 552.042 78.487ZM553.428 78.487C553.692 78.487 553.923 78.718 553.923 78.993C553.923 79.268 553.692 79.499 553.428 79.499C553.131 79.499 552.922 79.268 552.922 78.993C552.922 78.718 553.131 78.487 553.428 78.487ZM559.476 68.697C559.168 68.697 558.937 68.444 558.937 68.158C558.937 67.872 559.168 67.619 559.476 67.619C559.773 67.619 560.004 67.872 560.004 68.158C560.004 68.444 559.773 68.697 559.476 68.697ZM562.204 74.087L562.391 74.12L562.358 74.967L562.171 75C561.126 75 560.136 74.824 559.333 74.494C558.728 74.769 557.815 75 556.605 75L556.418 74.967L556.451 74.12L556.638 74.087C557.254 74.087 557.826 74.032 558.343 73.944C557.716 73.46 557.331 72.844 557.331 72.118C557.331 70.897 558.178 69.753 559.476 69.753C560.697 69.753 561.5 70.82 561.5 72.008C561.5 72.789 561.082 73.438 560.345 73.922C560.884 74.032 561.5 74.087 562.204 74.087ZM558.035 72.008C558.035 72.712 558.508 73.284 559.388 73.647C560.268 73.295 560.796 72.767 560.796 72.118C560.796 71.359 560.257 70.666 559.41 70.666C558.585 70.666 558.035 71.315 558.035 72.008ZM566.921 70.292C568.329 70.292 569.22 71.502 569.22 72.69C569.22 74.098 568.208 75 566.008 75H562.169L561.982 74.956L562.015 74.12L562.202 74.087H562.587C562.796 73.68 563.016 73.306 563.236 72.965V67.267H563.962V70.842C563.962 71.337 563.83 71.898 563.709 72.283C564.677 71.018 565.744 70.292 566.921 70.292ZM566.591 69.236C566.283 69.236 566.052 68.983 566.052 68.697C566.052 68.411 566.283 68.158 566.591 68.158C566.888 68.158 567.119 68.411 567.119 68.697C567.119 68.983 566.888 69.236 566.591 69.236ZM563.313 74.087H566.129C567.515 74.087 568.505 73.691 568.505 72.767C568.505 72.008 567.878 71.205 566.8 71.205C565.37 71.205 564.171 72.525 563.313 74.087ZM574.859 74.087H575.596L575.783 74.186L575.75 74.89L575.563 75H574.705C574.331 76.364 573.308 77.431 571.262 77.431C570.613 77.431 570.03 77.321 569.777 77.244L569.865 76.386C570.096 76.441 570.646 76.518 571.306 76.518C572.802 76.518 573.638 75.803 573.979 75H572.582C571.196 75 570.525 74.252 570.525 73.229C570.525 71.887 571.416 70.765 572.747 70.765C574.1 70.765 574.87 71.986 574.87 73.669C574.87 73.812 574.87 73.944 574.859 74.087ZM571.24 73.174C571.24 73.768 571.746 74.087 572.67 74.087H574.155V73.79C574.155 73.042 573.836 71.656 572.692 71.656C571.724 71.656 571.24 72.47 571.24 73.174ZM579.437 70.721C580.581 70.721 581.395 71.744 581.395 72.921C581.395 74.219 580.493 75.044 579.118 75.044C578.106 75.044 577.435 74.527 577.237 74.054C576.995 74.648 576.357 75 575.565 75L575.378 74.967L575.411 74.12L575.598 74.087C576.159 74.087 576.742 73.977 576.973 73.185C577.358 71.557 578.216 70.721 579.437 70.721ZM579.25 74.142C580.174 74.142 580.68 73.713 580.68 73.086C580.68 72.239 580.108 71.623 579.327 71.623C578.414 71.623 577.842 72.327 577.622 73.394C577.809 73.768 578.304 74.142 579.25 74.142Z" fill="#444444"/>
    <mask id="path-9-inside-1_2100_37574" fill="white">
    <path d="M20 91H592V136H20V91Z"/>
    </mask>
    <path d="M592 135H20V137H592V135Z" fill="#EEEEEE" mask="url(#path-9-inside-1_2100_37574)"/>
    <rect x="444.5" y="103.5" width="135" height="20" rx="10" stroke="#EEEEEE"/>
    <rect x="493" y="110.5" width="58" height="6" rx="3" fill="#EEEEEE"/>
    <path d="M569.409 117.452V117.441C569.495 117.535 569.538 117.646 569.538 117.774C569.538 117.896 569.495 118.004 569.409 118.097C569.366 118.14 569.316 118.172 569.259 118.193C569.201 118.215 569.144 118.226 569.087 118.226C569.022 118.226 568.962 118.215 568.904 118.193C568.854 118.172 568.808 118.14 568.765 118.097L566.154 115.486C565.803 115.773 565.41 115.998 564.973 116.163C564.536 116.321 564.074 116.399 563.587 116.399C563.014 116.399 562.477 116.288 561.976 116.066C561.474 115.852 561.037 115.558 560.665 115.186C560.293 114.813 559.999 114.376 559.784 113.875C559.569 113.374 559.462 112.84 559.462 112.274C559.462 111.701 559.569 111.164 559.784 110.663C559.999 110.162 560.293 109.725 560.665 109.353C561.037 108.98 561.474 108.687 561.976 108.472C562.477 108.257 563.014 108.149 563.587 108.149C564.153 108.149 564.686 108.257 565.188 108.472C565.689 108.687 566.126 108.98 566.498 109.353C566.87 109.725 567.164 110.162 567.379 110.663C567.601 111.164 567.712 111.701 567.712 112.274C567.712 112.761 567.63 113.223 567.465 113.66C567.307 114.097 567.085 114.491 566.799 114.842L569.409 117.452ZM563.587 115.476C564.024 115.476 564.439 115.393 564.833 115.229C565.22 115.057 565.556 114.827 565.843 114.541C566.136 114.247 566.369 113.907 566.541 113.521C566.706 113.127 566.788 112.711 566.788 112.274C566.788 111.83 566.706 111.415 566.541 111.028C566.369 110.634 566.136 110.294 565.843 110.008C565.556 109.714 565.22 109.485 564.833 109.32C564.439 109.148 564.024 109.062 563.587 109.062C563.143 109.062 562.728 109.148 562.341 109.32C561.947 109.485 561.603 109.714 561.31 110.008C561.023 110.294 560.798 110.634 560.633 111.028C560.461 111.415 560.375 111.83 560.375 112.274C560.375 112.711 560.461 113.127 560.633 113.521C560.798 113.907 561.023 114.247 561.31 114.541C561.603 114.827 561.947 115.057 562.341 115.229C562.728 115.393 563.143 115.476 563.587 115.476Z" fill="#444444"/>
    <mask id="path-14-inside-2_2100_37574" fill="white">
    <path d="M20 136H432V439H20V136Z"/>
    </mask>
    <path d="M20 136H432V439H20V136Z" fill="#F8F8F8"/>
    <path d="M431 136V439H433V136H431ZM21 439V136H19V439H21Z" fill="#EEEEEE" mask="url(#path-14-inside-2_2100_37574)"/>
    <path d="M396.156 157.347C397.311 157.347 398.147 158.392 398.147 159.58C398.147 160.889 397.311 161.714 395.826 161.714C394.803 161.714 394.143 161.175 393.89 160.647C392.636 160.889 392.372 161.043 392.372 161.604V165.256H391.646V161.692C391.646 160.592 392.097 160.119 393.736 159.723C394.121 158.15 394.957 157.347 396.156 157.347ZM395.925 160.812C396.915 160.812 397.432 160.383 397.432 159.756C397.432 158.887 396.838 158.249 396.035 158.249C395.133 158.249 394.572 158.953 394.352 160.009C394.572 160.416 395.056 160.812 395.925 160.812ZM399.415 160.24V154.267H400.141V159.932C400.141 160.9 400.691 161.087 401.472 161.087H401.516L401.703 161.12L401.67 161.967L401.483 162H401.45C400.306 162 399.415 161.472 399.415 160.24ZM405.638 161.087H407.519L407.706 161.12L407.673 161.967L407.486 162H406.76C406.947 162.187 407.057 162.429 407.057 162.726C407.057 163.661 406.298 164.464 404.923 164.464C403.229 164.464 402.338 163.254 402.151 162H401.48L401.293 161.967L401.326 161.12L401.513 161.087H402.118C402.25 159.382 403.196 157.435 404.802 157.435C405.902 157.435 406.485 158.337 406.485 159.382C406.485 160.075 406.199 160.669 405.638 161.087ZM404.714 158.348C403.537 158.348 402.943 159.954 402.844 161.087H403.438C404.791 161.087 405.77 160.559 405.77 159.514C405.77 158.865 405.44 158.348 404.714 158.348ZM405.011 163.551C405.847 163.551 406.342 163.265 406.342 162.836C406.342 162.308 405.649 161.89 404.45 161.89H402.866C403.02 162.649 403.57 163.551 405.011 163.551ZM414.558 161.087L414.745 161.12L414.712 161.967L414.525 162C413.744 162 413.117 161.659 412.831 161.054C412.545 161.56 411.863 162.044 410.884 162.044C410.037 162.044 409.41 161.747 409.069 161.241C408.783 161.725 408.145 162 407.485 162L407.298 161.967L407.331 161.12L407.518 161.087C408.09 161.087 408.585 160.944 408.827 160.592C408.805 160.482 408.794 160.361 408.794 160.24C408.794 158.865 409.751 157.721 411.104 157.721C412.138 157.721 412.853 158.458 413.216 159.932C413.436 160.834 413.799 161.087 414.558 161.087ZM410.972 161.142C411.918 161.142 412.402 160.735 412.567 160.35C412.336 159.316 411.841 158.623 410.994 158.623C410.136 158.623 409.509 159.261 409.509 160.119C409.509 160.724 410.037 161.142 410.972 161.142ZM415.918 154.267H416.644V159.855C416.644 161.384 415.72 162 414.521 162L414.334 161.967L414.367 161.12L414.554 161.087C415.357 161.087 415.918 160.933 415.918 159.987V154.267ZM419.125 162H418.399V154.267H419.125V162Z" fill="#444444"/>
    <rect x="30" y="179" width="122" height="42" rx="10" fill="#DDDDDD"/>
    <rect x="50" y="191" width="82" height="6" rx="3" fill="#F2F5F7"/>
    <rect x="67" y="203" width="65" height="6" rx="3" fill="#F2F5F7"/>
    <rect x="164" y="179" width="122" height="42" rx="10" fill="#DDDDDD"/>
    <rect x="184" y="191" width="82" height="6" rx="3" fill="#F2F5F7"/>
    <rect x="201" y="203" width="65" height="6" rx="3" fill="#F2F5F7"/>
    <rect x="298" y="179" width="122" height="42" rx="10" fill="#DDDDDD"/>
    <rect x="318" y="191" width="82" height="6" rx="3" fill="#F2F5F7"/>
    <rect x="335" y="203" width="65" height="6" rx="3" fill="#F2F5F7"/>
    <rect x="30" y="232" width="122" height="42" rx="10" fill="#DDDDDD"/>
    <rect x="50" y="244" width="82" height="6" rx="3" fill="#F2F5F7"/>
    <rect x="67" y="256" width="65" height="6" rx="3" fill="#F2F5F7"/>
    <rect x="164" y="232" width="122" height="42" rx="10" fill="#DDDDDD"/>
    <rect x="184" y="244" width="82" height="6" rx="3" fill="#F2F5F7"/>
    <rect x="201" y="256" width="65" height="6" rx="3" fill="#F2F5F7"/>
    <rect x="298" y="232" width="122" height="42" rx="10" fill="#DDDDDD"/>
    <rect x="318" y="244" width="82" height="6" rx="3" fill="#F2F5F7"/>
    <rect x="335" y="256" width="65" height="6" rx="3" fill="#F2F5F7"/>
    <rect x="30" y="285" width="122" height="42" rx="10" fill="#DDDDDD"/>
    <rect x="50" y="297" width="82" height="6" rx="3" fill="#F2F5F7"/>
    <rect x="67" y="309" width="65" height="6" rx="3" fill="#F2F5F7"/>
    <rect x="164" y="285" width="122" height="42" rx="10" fill="#DDDDDD"/>
    <rect x="184" y="297" width="82" height="6" rx="3" fill="#F2F5F7"/>
    <rect x="201" y="309" width="65" height="6" rx="3" fill="#F2F5F7"/>
    <rect x="298" y="285" width="122" height="42" rx="10" fill="#DDDDDD"/>
    <rect x="318" y="297" width="82" height="6" rx="3" fill="#F2F5F7"/>
    <rect x="335" y="309" width="65" height="6" rx="3" fill="#F2F5F7"/>
    <rect x="30" y="338" width="122" height="42" rx="10" fill="#DDDDDD"/>
    <rect x="50" y="350" width="82" height="6" rx="3" fill="#F2F5F7"/>
    <rect x="67" y="362" width="65" height="6" rx="3" fill="#F2F5F7"/>
    <rect x="164" y="338" width="122" height="42" rx="10" fill="#DDDDDD"/>
    <rect x="184" y="350" width="82" height="6" rx="3" fill="#F2F5F7"/>
    <rect x="201" y="362" width="65" height="6" rx="3" fill="#F2F5F7"/>
    <rect x="298" y="338" width="122" height="42" rx="10" fill="#DDDDDD"/>
    <rect x="318" y="350" width="82" height="6" rx="3" fill="#F2F5F7"/>
    <rect x="335" y="362" width="65" height="6" rx="3" fill="#F2F5F7"/>
    <rect x="30" y="391" width="122" height="42" rx="10" fill="#DDDDDD"/>
    <rect x="50" y="403" width="82" height="6" rx="3" fill="#F2F5F7"/>
    <rect x="67" y="415" width="65" height="6" rx="3" fill="#F2F5F7"/>
    <rect x="164" y="391" width="122" height="42" rx="10" fill="#DDDDDD"/>
    <rect x="184" y="403" width="82" height="6" rx="3" fill="#F2F5F7"/>
    <rect x="201" y="415" width="65" height="6" rx="3" fill="#F2F5F7"/>
    <rect x="298" y="391" width="122" height="42" rx="10" fill="#DDDDDD"/>
    <rect x="318" y="403" width="82" height="6" rx="3" fill="#F2F5F7"/>
    <rect x="335" y="415" width="65" height="6" rx="3" fill="#F2F5F7"/>
    <mask id="path-62-inside-3_2100_37574" fill="white">
    <path d="M432 136H592V178H432V136Z"/>
    </mask>
    <path d="M432 136H592V178H432V136Z" fill="#F8F8F8"/>
    <path d="M591 136V178H593V136H591Z" fill="#DDDDDD" mask="url(#path-62-inside-3_2100_37574)"/>
    <rect x="515" y="154" width="41" height="6" rx="3" fill="#DDDDDD"/>
    <circle cx="571" cy="157" r="9" fill="#DDDDDD"/>
    <mask id="path-66-inside-4_2100_37574" fill="white">
    <path d="M432 178H592V220H432V178Z"/>
    </mask>
    <path d="M432 178H592V220H432V178Z" fill="#F8F8F8"/>
    <path d="M591 178V220H593V178H591Z" fill="#DDDDDD" mask="url(#path-66-inside-4_2100_37574)"/>
    <rect x="515" y="196" width="41" height="6" rx="3" fill="#DDDDDD"/>
    <circle cx="571" cy="199" r="9" fill="#DDDDDD"/>
    <mask id="path-70-inside-5_2100_37574" fill="white">
    <path d="M432 220H592V262H432V220Z"/>
    </mask>
    <path d="M432 220H592V262H432V220Z" fill="#F8F8F8"/>
    <path d="M591 220V262H593V220H591Z" fill="#DDDDDD" mask="url(#path-70-inside-5_2100_37574)"/>
    <rect x="515" y="238" width="41" height="6" rx="3" fill="#DDDDDD"/>
    <circle cx="571" cy="241" r="9" fill="#DDDDDD"/>
    <mask id="path-74-inside-6_2100_37574" fill="white">
    <path d="M432 262H592V304H432V262Z"/>
    </mask>
    <path d="M432 262H592V304H432V262Z" fill="#F8F8F8"/>
    <path d="M591 262V304H593V262H591Z" fill="#DDDDDD" mask="url(#path-74-inside-6_2100_37574)"/>
    <rect x="515" y="280" width="41" height="6" rx="3" fill="#DDDDDD"/>
    <circle cx="571" cy="283" r="9" fill="#DDDDDD"/>
    <mask id="path-78-inside-7_2100_37574" fill="white">
    <path d="M432 304H592V346H432V304Z"/>
    </mask>
    <path d="M432 304H592V346H432V304Z" fill="#F8F8F8"/>
    <path d="M591 304V346H593V304H591Z" fill="#DDDDDD" mask="url(#path-78-inside-7_2100_37574)"/>
    <rect x="515" y="322" width="41" height="6" rx="3" fill="#DDDDDD"/>
    <circle cx="571" cy="325" r="9" fill="#DDDDDD"/>
    <mask id="path-82-inside-8_2100_37574" fill="white">
    <path d="M432 346H592V388H432V346Z"/>
    </mask>
    <path d="M432 346H592V388H432V346Z" fill="#F8F8F8"/>
    <path d="M591 346V388H593V346H591Z" fill="#DDDDDD" mask="url(#path-82-inside-8_2100_37574)"/>
    <rect x="515" y="364" width="41" height="6" rx="3" fill="#DDDDDD"/>
    <circle cx="571" cy="367" r="9" fill="#DDDDDD"/>
    <mask id="path-86-inside-9_2100_37574" fill="white">
    <path d="M432 388H592V439H432V388Z"/>
    </mask>
    <path d="M432 388H592V439H432V388Z" fill="#F8F8F8"/>
    <path d="M591 388V439H593V388H591Z" fill="#DDDDDD" mask="url(#path-86-inside-9_2100_37574)"/>
    <rect x="515" y="410.5" width="41" height="6" rx="3" fill="#DDDDDD"/>
    <circle cx="571" cy="413.5" r="9" fill="#DDDDDD"/>
    <g filter="url(#filter1_d_2100_37574)">
    <rect x="440" y="220" width="178" height="78" rx="8" fill="white" shape-rendering="crispEdges"/>
    <path d="M571.755 242.648C571.755 243.14 571.575 243.56 571.215 243.884C571.431 244.088 571.611 244.46 571.611 244.952C571.611 246.38 570.255 247.88 567.327 247.88C564.915 247.88 563.547 246.488 563.547 244.424C563.547 243.296 563.871 242.228 564.231 241.424L565.107 241.748C564.759 242.528 564.567 243.524 564.567 244.184C564.567 245.792 565.647 246.584 567.471 246.584C569.655 246.584 570.639 245.696 570.639 245.072C570.639 244.724 570.411 244.508 569.679 244.508H568.119V243.296H570.507C570.687 243.164 570.819 242.996 570.819 242.78C570.819 242.036 569.787 241.484 567.891 240.392V239.168L572.535 236.456L572.943 237.452L569.019 239.696C570.507 240.584 571.755 241.352 571.755 242.648ZM566.787 248.756C567.123 248.756 567.387 249.032 567.387 249.356C567.387 249.692 567.135 249.956 566.787 249.956C566.463 249.956 566.187 249.692 566.187 249.356C566.187 249.032 566.463 248.756 566.787 248.756ZM568.359 248.756C568.683 248.756 568.959 249.032 568.959 249.356C568.959 249.692 568.683 249.956 568.359 249.956C568.011 249.956 567.759 249.692 567.759 249.356C567.759 249.032 568.011 248.756 568.359 248.756ZM578.521 239.192C578.197 239.192 577.921 238.928 577.921 238.592C577.921 238.268 578.197 237.992 578.521 237.992C578.857 237.992 579.121 238.268 579.121 238.592C579.121 238.928 578.869 239.192 578.521 239.192ZM580.093 239.192C579.745 239.192 579.493 238.928 579.493 238.592C579.493 238.268 579.745 237.992 580.093 237.992C580.417 237.992 580.693 238.268 580.693 238.592C580.693 238.928 580.417 239.192 580.093 239.192ZM581.197 243.704L581.401 243.74L581.341 244.964L581.137 245C579.901 245 579.121 244.592 578.941 243.44H576.349C576.361 243.62 576.373 243.788 576.373 243.944C576.373 245.876 575.137 247.532 573.037 247.532C572.593 247.532 572.185 247.46 572.005 247.4L572.113 246.188C572.389 246.224 572.653 246.236 572.929 246.236C574.645 246.236 575.377 245.06 575.377 244.1C575.377 243.224 575.125 242.156 574.813 240.716L575.809 240.452C575.953 241.052 576.085 241.628 576.181 242.18H578.821V240.212H579.817V242.384C579.817 243.524 580.285 243.704 581.197 243.704ZM582.579 236.492H583.611V242.432C583.611 244.256 582.543 245 581.151 245L580.947 244.964L580.995 243.74L581.199 243.704C582.039 243.704 582.579 243.524 582.579 242.552V236.492ZM586.448 245H585.416V236.492H586.448V245ZM601.503 243.704L601.707 243.74L601.659 244.964L601.455 245C600.399 245 599.619 244.532 599.403 243.38C599.187 243.752 598.863 244.016 598.431 244.184C598.563 244.388 598.623 244.64 598.623 244.916C598.623 246.368 597.231 247.88 594.339 247.88C591.927 247.88 590.559 246.488 590.559 244.424C590.559 243.296 590.883 242.228 591.243 241.424L592.119 241.748C591.771 242.528 591.579 243.512 591.579 244.172C591.579 245.78 592.659 246.584 594.483 246.584C596.667 246.584 597.651 245.696 597.651 245.072C597.651 244.712 597.387 244.496 596.523 244.496H595.143V243.224H596.751C598.131 243.224 599.091 243.032 599.091 241.904V236.492H600.123V242.384C600.123 243.512 600.675 243.704 601.503 243.704ZM593.787 248.756C594.123 248.756 594.387 249.032 594.387 249.356C594.387 249.692 594.135 249.956 593.787 249.956C593.463 249.956 593.187 249.692 593.187 249.356C593.187 249.032 593.463 248.756 593.787 248.756ZM595.359 248.756C595.683 248.756 595.959 249.032 595.959 249.356C595.959 249.692 595.683 249.956 595.359 249.956C595.011 249.956 594.759 249.692 594.759 249.356C594.759 249.032 595.011 248.756 595.359 248.756ZM605.096 243.704H607.556V245H601.46L601.256 244.928L601.292 243.8L601.508 243.704H602.936C602.504 243.344 602.252 242.804 602.252 242.084C602.252 240.74 603.248 239.408 604.904 239.408C606.068 239.408 606.8 240.164 607.088 240.62L606.488 241.484C606.14 241.148 605.564 240.704 604.808 240.704C603.86 240.704 603.212 241.364 603.212 242.156C603.212 243.188 604.172 243.704 605.096 243.704Z" fill="#444444"/>
    <path d="M571.433 262.253L571.586 262.28L571.559 262.973L571.406 263C570.767 263 570.254 262.721 570.02 262.226C569.786 262.64 569.228 263.036 568.427 263.036C567.545 263.036 566.96 262.649 566.78 262.01C565.871 262.199 565.664 262.334 565.664 262.766V265.844H565.07V262.838C565.07 261.956 565.439 261.56 566.735 261.245C566.87 260.264 567.608 259.499 568.607 259.499C569.453 259.499 570.038 260.102 570.335 261.308C570.515 262.046 570.812 262.253 571.433 262.253ZM568.499 262.298C569.273 262.298 569.669 261.965 569.804 261.65C569.615 260.804 569.21 260.237 568.517 260.237C567.815 260.237 567.302 260.759 567.302 261.461C567.302 261.956 567.734 262.298 568.499 262.298ZM574.138 262.253H575.929V263H571.402L571.249 262.937L571.267 262.343L571.429 262.253H572.617C572.248 261.974 572.023 261.542 572.023 260.957C572.023 259.958 572.752 258.959 573.958 258.959C574.822 258.959 575.353 259.553 575.56 259.895L575.164 260.354C574.894 260.075 574.462 259.706 573.859 259.706C573.121 259.706 572.608 260.264 572.608 260.93C572.608 261.812 573.4 262.253 574.138 262.253ZM578.432 263.081C576.713 263.081 576.515 262.109 576.578 261.128L577.127 261.101C577.073 262.154 577.604 262.334 578.495 262.334C579.476 262.334 579.944 262.019 579.944 261.452C579.944 260.795 579.323 259.895 578.225 258.842L578.711 258.329C579.494 259.085 580.529 260.219 580.529 261.371C580.529 262.46 579.854 263.081 578.432 263.081ZM589.569 257.843C589.317 257.843 589.128 257.636 589.128 257.402C589.128 257.168 589.317 256.961 589.569 256.961C589.812 256.961 590.001 257.168 590.001 257.402C590.001 257.636 589.812 257.843 589.569 257.843ZM591.801 262.253L591.954 262.28L591.927 262.973L591.774 263C590.946 263 590.163 262.856 589.515 262.595C589.056 262.82 588.264 263 587.238 263H586.149C584.259 263 583.476 262.37 583.476 260.966C583.476 260.462 583.62 259.85 583.845 259.301L584.367 259.49C584.169 260.003 584.061 260.417 584.061 260.858C584.061 261.83 584.781 262.253 586.149 262.253H587.49C587.922 262.253 588.318 262.217 588.678 262.145C588.147 261.758 587.814 261.245 587.814 260.642C587.814 259.652 588.507 258.707 589.569 258.707C590.568 258.707 591.225 259.58 591.225 260.552C591.225 261.155 590.91 261.713 590.334 262.127C590.757 262.208 591.243 262.253 591.801 262.253ZM588.39 260.552C588.39 261.128 588.777 261.605 589.533 261.902C590.226 261.614 590.649 261.164 590.649 260.642C590.649 260.021 590.208 259.454 589.515 259.454C588.84 259.454 588.39 259.985 588.39 260.552ZM595.663 259.148C596.815 259.148 597.544 260.138 597.544 261.11C597.544 262.262 596.716 263 594.916 263H591.775L591.622 262.964L591.649 262.28L591.802 262.253H592.117C592.288 261.92 592.468 261.614 592.648 261.335V256.673H593.242V259.598C593.242 260.003 593.134 260.462 593.035 260.777C593.827 259.742 594.7 259.148 595.663 259.148ZM595.393 258.284C595.141 258.284 594.952 258.077 594.952 257.843C594.952 257.609 595.141 257.402 595.393 257.402C595.636 257.402 595.825 257.609 595.825 257.843C595.825 258.077 595.636 258.284 595.393 258.284ZM592.711 262.253H595.015C596.149 262.253 596.959 261.929 596.959 261.173C596.959 260.552 596.446 259.895 595.564 259.895C594.394 259.895 593.413 260.975 592.711 262.253ZM602.157 262.253H602.76L602.913 262.334L602.886 262.91L602.733 263H602.031C601.725 264.116 600.888 264.989 599.214 264.989C598.683 264.989 598.206 264.899 597.999 264.836L598.071 264.134C598.26 264.179 598.71 264.242 599.25 264.242C600.474 264.242 601.158 263.657 601.437 263H600.294C599.16 263 598.611 262.388 598.611 261.551C598.611 260.453 599.34 259.535 600.429 259.535C601.536 259.535 602.166 260.534 602.166 261.911C602.166 262.028 602.166 262.136 602.157 262.253ZM599.196 261.506C599.196 261.992 599.61 262.253 600.366 262.253H601.581V262.01C601.581 261.398 601.32 260.264 600.384 260.264C599.592 260.264 599.196 260.93 599.196 261.506ZM605.903 259.499C606.839 259.499 607.505 260.336 607.505 261.299C607.505 262.361 606.767 263.036 605.642 263.036C604.814 263.036 604.265 262.613 604.103 262.226C603.905 262.712 603.383 263 602.735 263L602.582 262.973L602.609 262.28L602.762 262.253C603.221 262.253 603.698 262.163 603.887 261.515C604.202 260.183 604.904 259.499 605.903 259.499ZM605.75 262.298C606.506 262.298 606.92 261.947 606.92 261.434C606.92 260.741 606.452 260.237 605.813 260.237C605.066 260.237 604.598 260.813 604.418 261.686C604.571 261.992 604.976 262.298 605.75 262.298Z" fill="#666666"/>
    <rect x="450" y="273" width="50" height="15" rx="7.5" fill="#BAF3E6"/>
    <path d="M458.304 279.108C458.304 278.958 458.43 278.832 458.58 278.832C458.736 278.832 458.85 278.958 458.85 279.108C458.85 279.258 458.742 279.384 458.58 279.384C458.43 279.384 458.304 279.258 458.304 279.108ZM459.06 279.108C459.06 278.958 459.174 278.832 459.336 278.832C459.48 278.832 459.606 278.958 459.606 279.108C459.606 279.258 459.48 279.384 459.336 279.384C459.174 279.384 459.06 279.258 459.06 279.108ZM459.456 282H458.31C457.05 282 456.528 281.58 456.528 280.644C456.528 280.308 456.624 279.9 456.774 279.534L457.122 279.66C456.99 280.002 456.918 280.272 456.918 280.566C456.918 281.22 457.398 281.502 458.31 281.502H459.444C460.458 281.502 460.908 281.22 460.908 280.638C460.908 280.224 460.83 279.792 460.74 279.42L461.124 279.33C461.202 279.66 461.298 280.116 461.298 280.572C461.298 281.502 460.8 282 459.456 282ZM461.988 281.04V277.782H462.384V280.872C462.384 281.4 462.684 281.502 463.11 281.502H463.134L463.236 281.52L463.218 281.982L463.116 282H463.098C462.474 282 461.988 281.712 461.988 281.04ZM467.597 281.502L467.699 281.52L467.681 281.982L467.579 282C466.703 282 466.475 281.562 466.439 280.866H466.223C464.891 281.778 464.075 282 463.115 282L463.013 281.982L463.031 281.52L463.133 281.502C463.829 281.502 464.549 281.43 465.935 280.602C465.821 280.542 465.689 280.464 465.515 280.374C465.149 280.182 464.813 279.99 464.381 279.99C463.979 279.99 463.697 280.146 463.541 280.254L463.349 279.93C463.481 279.75 463.883 279.492 464.411 279.492C465.005 279.492 465.341 279.756 465.701 279.972C466.229 280.284 466.319 280.332 466.655 280.332H467.309L467.279 280.866H466.775C466.823 281.316 467.033 281.502 467.597 281.502ZM465.743 282.012C465.905 282.012 466.031 282.15 466.031 282.306C466.031 282.462 465.905 282.6 465.743 282.6C465.575 282.6 465.449 282.462 465.449 282.306C465.449 282.15 465.575 282.012 465.743 282.012ZM468.162 279.402C468.012 279.402 467.886 279.276 467.886 279.126C467.886 278.976 468.012 278.85 468.162 278.85C468.318 278.85 468.432 278.976 468.432 279.126C468.432 279.276 468.324 279.402 468.162 279.402ZM468.918 279.402C468.756 279.402 468.642 279.276 468.642 279.126C468.642 278.976 468.756 278.85 468.918 278.85C469.062 278.85 469.188 278.976 469.188 279.126C469.188 279.276 469.062 279.402 468.918 279.402ZM469.482 281.502L469.584 281.52L469.566 281.982L469.464 282C468.984 282 468.6 281.82 468.498 281.418C468.402 281.784 468.036 282 467.58 282L467.478 281.982L467.496 281.52L467.598 281.502C468.012 281.502 468.342 281.424 468.342 280.812V279.96H468.738V280.812C468.738 281.418 469.002 281.502 469.482 281.502ZM470.426 279.384C470.258 279.384 470.132 279.246 470.132 279.09C470.132 278.934 470.258 278.796 470.426 278.796C470.588 278.796 470.714 278.934 470.714 279.09C470.714 279.246 470.588 279.384 470.426 279.384ZM471.368 281.502L471.47 281.52L471.452 281.982L471.35 282C470.87 282 470.486 281.82 470.384 281.418C470.288 281.784 469.922 282 469.466 282L469.364 281.982L469.382 281.52L469.484 281.502C469.898 281.502 470.228 281.424 470.228 280.812V279.96H470.624V280.812C470.624 281.418 470.888 281.502 471.368 281.502ZM475.211 281.502L475.313 281.52L475.295 281.982L475.193 282C474.767 282 474.425 281.814 474.269 281.484C474.113 281.76 473.741 282.024 473.207 282.024C472.745 282.024 472.403 281.862 472.217 281.586C472.061 281.85 471.713 282 471.353 282L471.251 281.982L471.269 281.52L471.371 281.502C471.683 281.502 471.953 281.424 472.085 281.232C472.073 281.172 472.067 281.106 472.067 281.04C472.067 280.29 472.589 279.666 473.327 279.666C473.891 279.666 474.281 280.068 474.479 280.872C474.599 281.364 474.797 281.502 475.211 281.502ZM473.255 281.532C473.771 281.532 474.035 281.31 474.125 281.1C473.999 280.536 473.729 280.158 473.267 280.158C472.799 280.158 472.457 280.506 472.457 280.974C472.457 281.304 472.745 281.532 473.255 281.532ZM475.953 277.782H476.349V280.83C476.349 281.664 475.845 282 475.191 282L475.089 281.982L475.107 281.52L475.209 281.502C475.647 281.502 475.953 281.418 475.953 280.902V277.782ZM477.702 282H477.306V277.782H477.702V282ZM484.071 281.502L484.173 281.52L484.155 281.982L484.053 282C483.729 282 483.447 281.91 483.273 281.7C483.231 282.78 482.583 283.362 481.545 283.362C480.483 283.362 479.877 282.714 479.877 281.802C479.877 281.256 480.027 280.776 480.165 280.464L480.513 280.59C480.381 280.896 480.267 281.364 480.267 281.718C480.267 282.474 480.771 282.864 481.587 282.864C482.403 282.864 482.931 282.456 482.931 281.622V277.782H483.327V280.752C483.327 281.346 483.585 281.502 484.071 281.502ZM484.05 282L483.948 281.982L483.966 281.52L484.068 281.502C484.554 281.502 484.806 281.316 484.806 280.89C484.806 280.542 484.722 280.056 484.644 279.69L485.028 279.6C485.1 279.942 485.196 280.404 485.196 280.824C485.196 281.61 484.704 282 484.05 282ZM484.302 283.014C484.152 283.014 484.026 282.888 484.026 282.738C484.026 282.588 484.152 282.462 484.302 282.462C484.458 282.462 484.572 282.588 484.572 282.738C484.572 282.888 484.464 283.014 484.302 283.014ZM485.058 283.014C484.896 283.014 484.782 282.888 484.782 282.738C484.782 282.588 484.896 282.462 485.058 282.462C485.202 282.462 485.328 282.588 485.328 282.738C485.328 282.888 485.202 283.014 485.058 283.014ZM489.325 281.502L489.427 281.52L489.409 281.982L489.307 282C488.725 282 488.473 281.742 488.257 281.31C488.095 281.79 487.669 282.054 487.009 282.054C485.869 282.054 485.731 281.406 485.773 280.752L486.139 280.734C486.103 281.436 486.493 281.556 487.051 281.556C487.621 281.556 488.017 281.322 488.029 280.902L487.159 279.066L487.555 278.886L488.485 280.83C488.713 281.304 488.845 281.502 489.325 281.502ZM492.384 281.502H492.51L492.612 281.52L492.594 281.982L492.492 282H492.402C491.484 282 491.214 281.97 490.92 281.73C490.494 281.952 490.17 282 489.306 282L489.204 281.982L489.222 281.52L489.324 281.502C489.876 281.502 490.242 281.484 490.518 281.436C490.218 281.142 489.846 280.704 489.666 280.458V279.918C489.762 279.834 490.296 279.45 491.034 279.45C491.76 279.45 492.192 279.798 492.192 280.296C492.192 280.782 491.808 281.1 491.304 281.472C491.514 281.502 491.85 281.502 492.384 281.502ZM489.984 280.224C490.206 280.5 490.692 281.052 490.944 281.28C491.448 280.932 491.802 280.662 491.802 280.386C491.802 280.14 491.472 279.948 490.992 279.948C490.572 279.948 490.194 280.098 489.984 280.224ZM492.602 278.802C492.602 278.652 492.728 278.526 492.878 278.526C493.034 278.526 493.148 278.652 493.148 278.802C493.148 278.952 493.04 279.078 492.878 279.078C492.728 279.078 492.602 278.952 492.602 278.802ZM493.358 278.802C493.358 278.652 493.472 278.526 493.634 278.526C493.778 278.526 493.904 278.652 493.904 278.802C493.904 278.952 493.778 279.078 493.634 279.078C493.472 279.078 493.358 278.952 493.358 278.802ZM492.494 282L492.392 281.982L492.41 281.52L492.512 281.502C492.998 281.502 493.25 281.316 493.25 280.89C493.25 280.542 493.166 280.056 493.088 279.69L493.472 279.6C493.544 279.942 493.64 280.404 493.64 280.824C493.64 281.61 493.148 282 492.494 282Z" fill="#004D5A"/>
    <rect x="502" y="273" width="47" height="15" rx="7.5" fill="#BAF3E6"/>
    <path d="M510.802 279.108C510.802 278.958 510.928 278.832 511.078 278.832C511.234 278.832 511.348 278.958 511.348 279.108C511.348 279.258 511.24 279.384 511.078 279.384C510.928 279.384 510.802 279.258 510.802 279.108ZM511.558 279.108C511.558 278.958 511.672 278.832 511.834 278.832C511.978 278.832 512.104 278.958 512.104 279.108C512.104 279.258 511.978 279.384 511.834 279.384C511.672 279.384 511.558 279.258 511.558 279.108ZM511.954 282H510.808C509.548 282 509.026 281.58 509.026 280.644C509.026 280.308 509.122 279.9 509.272 279.534L509.62 279.66C509.488 280.002 509.416 280.272 509.416 280.566C509.416 281.22 509.896 281.502 510.808 281.502H511.942C512.956 281.502 513.406 281.22 513.406 280.638C513.406 280.224 513.328 279.792 513.238 279.42L513.622 279.33C513.7 279.66 513.796 280.116 513.796 280.572C513.796 281.502 513.298 282 511.954 282ZM514.486 281.04V277.782H514.882V280.872C514.882 281.4 515.182 281.502 515.608 281.502H515.632L515.734 281.52L515.716 281.982L515.614 282H515.596C514.972 282 514.486 281.712 514.486 281.04ZM517.515 281.502L517.617 281.52L517.599 281.982L517.497 282C517.017 282 516.633 281.82 516.531 281.418C516.435 281.784 516.069 282 515.613 282L515.511 281.982L515.529 281.52L515.631 281.502C516.045 281.502 516.375 281.424 516.375 280.812V279.96H516.771V280.812C516.771 281.418 517.035 281.502 517.515 281.502ZM516.573 282.462C516.735 282.462 516.861 282.6 516.861 282.756C516.861 282.912 516.735 283.05 516.573 283.05C516.405 283.05 516.279 282.912 516.279 282.756C516.279 282.6 516.405 282.462 516.573 282.462ZM519.402 281.502L519.504 281.52L519.486 281.982L519.384 282C518.898 282 518.508 281.814 518.418 281.43C518.31 281.79 517.95 282 517.5 282L517.398 281.982L517.416 281.52L517.518 281.502C517.932 281.502 518.262 281.424 518.262 280.812V277.782H518.658V280.812C518.658 281.418 518.97 281.502 519.402 281.502ZM523.616 281.502L523.718 281.52L523.7 281.982L523.598 282C523.136 282 522.902 281.88 522.788 281.67C522.5 281.88 522.068 282 521.48 282H519.386L519.284 281.976L519.302 281.52L519.404 281.502H519.614C519.728 281.28 519.848 281.076 519.968 280.89V277.782H520.364V279.732C520.364 280.002 520.292 280.308 520.226 280.518C520.754 279.828 521.336 279.432 521.978 279.432C522.746 279.432 523.232 280.092 523.232 280.74C523.232 280.986 523.178 281.202 523.064 281.382C523.16 281.454 523.322 281.502 523.616 281.502ZM520.01 281.502H521.546C522.302 281.502 522.842 281.286 522.842 280.782C522.842 280.368 522.5 279.93 521.912 279.93C521.132 279.93 520.478 280.65 520.01 281.502ZM524.361 277.782H524.757V280.83C524.757 281.664 524.253 282 523.599 282L523.497 281.982L523.515 281.52L523.617 281.502C524.055 281.502 524.361 281.418 524.361 280.902V277.782ZM526.11 282H525.714V277.782H526.11V282ZM529.107 278.31C528.957 278.31 528.831 278.184 528.831 278.034C528.831 277.884 528.957 277.758 529.107 277.758C529.263 277.758 529.377 277.884 529.377 278.034C529.377 278.184 529.269 278.31 529.107 278.31ZM529.863 278.31C529.701 278.31 529.587 278.184 529.587 278.034C529.587 277.884 529.701 277.758 529.863 277.758C530.007 277.758 530.133 277.884 530.133 278.034C530.133 278.184 530.007 278.31 529.863 278.31ZM531.411 281.502L531.513 281.52L531.495 281.976L531.393 282C530.697 282 530.361 281.676 530.283 281.154C530.145 281.43 529.863 281.628 529.359 281.628C528.717 281.628 528.285 281.238 528.285 280.638C528.285 279.942 528.807 279.384 530.265 279.132V278.7H530.661V280.812C530.661 281.418 530.973 281.502 531.411 281.502ZM529.413 281.124C529.917 281.124 530.193 280.914 530.265 280.722V279.564C529.065 279.78 528.675 280.2 528.675 280.584C528.675 280.95 528.969 281.124 529.413 281.124ZM534.47 281.502H534.596L534.698 281.52L534.68 281.982L534.578 282H534.488C533.57 282 533.3 281.97 533.006 281.73C532.58 281.952 532.256 282 531.392 282L531.29 281.982L531.308 281.52L531.41 281.502C531.962 281.502 532.328 281.484 532.604 281.436C532.304 281.142 531.932 280.704 531.752 280.458V279.918C531.848 279.834 532.382 279.45 533.12 279.45C533.846 279.45 534.278 279.798 534.278 280.296C534.278 280.782 533.894 281.1 533.39 281.472C533.6 281.502 533.936 281.502 534.47 281.502ZM532.07 280.224C532.292 280.5 532.778 281.052 533.03 281.28C533.534 280.932 533.888 280.662 533.888 280.386C533.888 280.14 533.558 279.948 533.078 279.948C532.658 279.948 532.28 280.098 532.07 280.224ZM534.58 282L534.478 281.982L534.496 281.52L534.598 281.502C535.084 281.502 535.336 281.316 535.336 280.89C535.336 280.542 535.252 280.056 535.174 279.69L535.558 279.6C535.63 279.942 535.726 280.404 535.726 280.824C535.726 281.61 535.234 282 534.58 282ZM535.21 283.05C535.042 283.05 534.916 282.912 534.916 282.756C534.916 282.6 535.042 282.462 535.21 282.462C535.372 282.462 535.498 282.6 535.498 282.756C535.498 282.912 535.372 283.05 535.21 283.05ZM536.477 281.04V277.782H536.873V280.872C536.873 281.4 537.173 281.502 537.599 281.502H537.623L537.725 281.52L537.707 281.982L537.605 282H537.587C536.963 282 536.477 281.712 536.477 281.04ZM538.185 279.402C538.035 279.402 537.909 279.276 537.909 279.126C537.909 278.976 538.035 278.85 538.185 278.85C538.341 278.85 538.455 278.976 538.455 279.126C538.455 279.276 538.347 279.402 538.185 279.402ZM538.941 279.402C538.779 279.402 538.665 279.276 538.665 279.126C538.665 278.976 538.779 278.85 538.941 278.85C539.085 278.85 539.211 278.976 539.211 279.126C539.211 279.276 539.085 279.402 538.941 279.402ZM539.505 281.502L539.607 281.52L539.589 281.982L539.487 282C539.007 282 538.623 281.82 538.521 281.418C538.425 281.784 538.059 282 537.603 282L537.501 281.982L537.519 281.52L537.621 281.502C538.035 281.502 538.365 281.424 538.365 280.812V279.96H538.761V280.812C538.761 281.418 539.025 281.502 539.505 281.502ZM541.602 279.666C542.226 279.666 542.67 280.224 542.67 280.866C542.67 281.574 542.178 282.024 541.428 282.024C540.876 282.024 540.51 281.742 540.402 281.484C540.27 281.808 539.922 282 539.49 282L539.388 281.982L539.406 281.52L539.508 281.502C539.814 281.502 540.132 281.442 540.258 281.01C540.468 280.122 540.936 279.666 541.602 279.666ZM541.5 281.532C542.004 281.532 542.28 281.298 542.28 280.956C542.28 280.494 541.968 280.158 541.542 280.158C541.044 280.158 540.732 280.542 540.612 281.124C540.714 281.328 540.984 281.532 541.5 281.532Z" fill="#004D5A"/>
    <rect x="551" y="273" width="57" height="15" rx="7.5" fill="#BAF3E6"/>
    <path d="M559.647 279.108C559.647 278.958 559.773 278.832 559.923 278.832C560.079 278.832 560.193 278.958 560.193 279.108C560.193 279.258 560.085 279.384 559.923 279.384C559.773 279.384 559.647 279.258 559.647 279.108ZM560.403 279.108C560.403 278.958 560.517 278.832 560.679 278.832C560.823 278.832 560.949 278.958 560.949 279.108C560.949 279.258 560.823 279.384 560.679 279.384C560.517 279.384 560.403 279.258 560.403 279.108ZM560.799 282H559.653C558.393 282 557.871 281.58 557.871 280.644C557.871 280.308 557.967 279.9 558.117 279.534L558.465 279.66C558.333 280.002 558.261 280.272 558.261 280.566C558.261 281.22 558.741 281.502 559.653 281.502H560.787C561.801 281.502 562.251 281.22 562.251 280.638C562.251 280.224 562.173 279.792 562.083 279.42L562.467 279.33C562.545 279.66 562.641 280.116 562.641 280.572C562.641 281.502 562.143 282 560.799 282ZM563.332 281.04V277.782H563.728V280.872C563.728 281.4 564.028 281.502 564.454 281.502H564.478L564.58 281.52L564.562 281.982L564.46 282H564.442C563.818 282 563.332 281.712 563.332 281.04ZM565.227 278.394C565.077 278.394 564.963 278.274 564.963 278.13C564.963 277.986 565.065 277.866 565.227 277.866C565.389 277.866 565.485 277.986 565.485 278.13C565.485 278.274 565.371 278.394 565.227 278.394ZM564.879 279.054C564.717 279.054 564.615 278.934 564.615 278.79C564.615 278.646 564.717 278.526 564.879 278.526C565.041 278.526 565.137 278.646 565.137 278.79C565.137 278.934 565.041 279.054 564.879 279.054ZM565.575 279.054C565.413 279.054 565.311 278.934 565.311 278.79C565.311 278.646 565.413 278.526 565.575 278.526C565.737 278.526 565.833 278.646 565.833 278.79C565.833 278.934 565.737 279.054 565.575 279.054ZM564.459 282L564.357 281.982L564.375 281.52L564.477 281.502C564.963 281.502 565.215 281.316 565.215 280.89C565.215 280.542 565.131 280.056 565.053 279.69L565.437 279.6C565.509 279.942 565.605 280.404 565.605 280.824C565.605 281.61 565.113 282 564.459 282ZM567.417 282.054C566.271 282.054 566.139 281.406 566.181 280.752L566.547 280.734C566.511 281.436 566.865 281.556 567.459 281.556C568.113 281.556 568.425 281.346 568.425 280.968C568.425 280.53 568.011 279.93 567.279 279.228L567.603 278.886C568.125 279.39 568.815 280.146 568.815 280.914C568.815 281.64 568.365 282.054 567.417 282.054ZM569.502 281.04V277.782H569.898V280.872C569.898 281.4 570.198 281.502 570.624 281.502H570.648L570.75 281.52L570.732 281.982L570.63 282H570.612C569.988 282 569.502 281.712 569.502 281.04ZM575.11 281.502L575.212 281.52L575.194 281.982L575.092 282C574.216 282 573.988 281.562 573.952 280.866H573.736C572.404 281.778 571.588 282 570.628 282L570.526 281.982L570.544 281.52L570.646 281.502C571.342 281.502 572.062 281.43 573.448 280.602C573.334 280.542 573.202 280.464 573.028 280.374C572.662 280.182 572.326 279.99 571.894 279.99C571.492 279.99 571.21 280.146 571.054 280.254L570.862 279.93C570.994 279.75 571.396 279.492 571.924 279.492C572.518 279.492 572.854 279.756 573.214 279.972C573.742 280.284 573.832 280.332 574.168 280.332H574.822L574.792 280.866H574.288C574.336 281.316 574.546 281.502 575.11 281.502ZM578.951 281.502L579.053 281.52L579.035 281.982L578.933 282C578.507 282 578.165 281.814 578.009 281.484C577.853 281.76 577.481 282.024 576.947 282.024C576.485 282.024 576.143 281.862 575.957 281.586C575.801 281.85 575.453 282 575.093 282L574.991 281.982L575.009 281.52L575.111 281.502C575.423 281.502 575.693 281.424 575.825 281.232C575.813 281.172 575.807 281.106 575.807 281.04C575.807 280.29 576.329 279.666 577.067 279.666C577.631 279.666 578.021 280.068 578.219 280.872C578.339 281.364 578.537 281.502 578.951 281.502ZM576.995 281.532C577.511 281.532 577.775 281.31 577.865 281.1C577.739 280.536 577.469 280.158 577.007 280.158C576.539 280.158 576.197 280.506 576.197 280.974C576.197 281.304 576.485 281.532 576.995 281.532ZM579.693 277.782H580.089V280.83C580.089 281.664 579.585 282 578.931 282L578.829 281.982L578.847 281.52L578.949 281.502C579.387 281.502 579.693 281.418 579.693 280.902V277.782ZM581.442 282H581.046V277.782H581.442V282ZM589.03 281.502L589.132 281.52L589.114 281.982L589.012 282C588.484 282 588.1 281.766 587.986 281.214C587.872 281.412 587.692 281.55 587.476 281.634C587.56 281.736 587.596 281.868 587.596 282.024C587.596 282.684 586.918 283.44 585.472 283.44C584.29 283.44 583.618 282.768 583.618 281.766C583.618 281.22 583.774 280.698 583.942 280.308L584.29 280.434C584.11 280.836 584.014 281.34 584.014 281.676C584.014 282.522 584.578 282.942 585.532 282.942C586.72 282.942 587.206 282.426 587.206 282.09C587.206 281.88 587.056 281.754 586.594 281.754H585.904V281.274H586.726C587.416 281.274 587.89 281.172 587.89 280.56V277.788H588.286V280.788C588.286 281.4 588.592 281.502 589.03 281.502ZM585.214 283.902C585.37 283.902 585.484 284.028 585.484 284.178C585.484 284.328 585.376 284.454 585.214 284.454C585.064 284.454 584.938 284.328 584.938 284.178C584.938 284.028 585.064 283.902 585.214 283.902ZM585.97 283.902C586.114 283.902 586.24 284.028 586.24 284.178C586.24 284.328 586.114 284.454 585.97 284.454C585.808 284.454 585.694 284.328 585.694 284.178C585.694 284.028 585.808 283.902 585.97 283.902ZM590.833 281.502H592.027V282H589.009L588.907 281.958L588.919 281.562L589.027 281.502H589.819C589.573 281.316 589.423 281.028 589.423 280.638C589.423 279.972 589.909 279.306 590.713 279.306C591.289 279.306 591.643 279.702 591.781 279.93L591.517 280.236C591.337 280.05 591.049 279.804 590.647 279.804C590.155 279.804 589.813 280.176 589.813 280.62C589.813 281.208 590.341 281.502 590.833 281.502ZM595.214 282.054C594.068 282.054 593.936 281.406 593.978 280.752L594.344 280.734C594.308 281.436 594.662 281.556 595.256 281.556C595.91 281.556 596.222 281.346 596.222 280.968C596.222 280.53 595.808 279.93 595.076 279.228L595.4 278.886C595.922 279.39 596.612 280.146 596.612 280.914C596.612 281.64 596.162 282.054 595.214 282.054ZM598.46 281.502H599.03L599.132 281.52L599.114 281.982L599.012 282H598.436C598.292 282.726 597.716 283.326 596.798 283.326C596.606 283.326 596.426 283.296 596.342 283.272L596.39 282.804C596.528 282.822 596.66 282.828 596.798 282.828C597.704 282.828 598.076 282.204 598.076 281.718C598.076 281.274 597.974 280.782 597.86 280.116L598.25 280.02C598.364 280.614 598.448 281.106 598.46 281.502ZM599.773 277.782H600.169V280.83C600.169 281.664 599.665 282 599.011 282L598.909 281.982L598.927 281.52L599.029 281.502C599.467 281.502 599.773 281.418 599.773 280.902V277.782ZM601.522 282H601.126V277.782H601.522V282Z" fill="#004D5A"/>
    </g>
    </g>
    <defs>
    <filter id="filter0_d_2100_37574" x="0" y="0" width="638" height="464" filterUnits="userSpaceOnUse" color-interpolation-filters="sRGB">
    <feFlood flood-opacity="0" result="BackgroundImageFix"/>
    <feColorMatrix in="SourceAlpha" type="matrix" values="0 0 0 0 0 0 0 0 0 0 0 0 0 0 0 0 0 0 127 0" result="hardAlpha"/>
    <feOffset dy="5"/>
    <feGaussianBlur stdDeviation="10"/>
    <feComposite in2="hardAlpha" operator="out"/>
    <feColorMatrix type="matrix" values="0 0 0 0 0 0 0 0 0 0 0 0 0 0 0 0 0 0 0.03 0"/>
    <feBlend mode="normal" in2="BackgroundImageFix" result="effect1_dropShadow_2100_37574"/>
    <feBlend mode="normal" in="SourceGraphic" in2="effect1_dropShadow_2100_37574" result="shape"/>
    </filter>
    <filter id="filter1_d_2100_37574" x="424" y="212" width="210" height="110" filterUnits="userSpaceOnUse" color-interpolation-filters="sRGB">
    <feFlood flood-opacity="0" result="BackgroundImageFix"/>
    <feColorMatrix in="SourceAlpha" type="matrix" values="0 0 0 0 0 0 0 0 0 0 0 0 0 0 0 0 0 0 127 0" result="hardAlpha"/>
    <feOffset dy="8"/>
    <feGaussianBlur stdDeviation="8"/>
    <feComposite in2="hardAlpha" operator="out"/>
    <feColorMatrix type="matrix" values="0 0 0 0 0 0 0 0 0 0 0 0 0 0 0 0 0 0 0.12 0"/>
    <feBlend mode="normal" in2="BackgroundImageFix" result="effect1_dropShadow_2100_37574"/>
    <feBlend mode="normal" in="SourceGraphic" in2="effect1_dropShadow_2100_37574" result="shape"/>
    </filter>
    </defs>
    </svg>
    