<svg width="176" height="176" viewBox="0 0 176 176" fill="none" xmlns="http://www.w3.org/2000/svg">
    <path d="M144.847 68.7344C144.847 68.7344 124.87 83.1147 142.723 119.774C158.579 152.331 114.968 161.56 97.0756 156.227C73.898 149.32 63.223 118.147 44.2409 125.861C25.2588 133.574 11.5098 88.968 39.3154 75.7343C73.9049 59.2724 54.0282 45.8375 58.3566 31.7321C61.4632 21.6086 92.9961 8.54241 107.403 28.3213C119.526 44.9645 126.729 40.1269 133.146 38.6825C142.401 36.5994 160.493 53.8436 144.847 68.7344Z" fill="#EEEEEE"/>
    <path d="M87.501 60.9265C82.7192 60.9266 78.0413 62.322 74.0409 64.9415C70.0404 67.561 66.8911 71.2909 64.9792 75.6739C63.0673 80.0568 62.4758 84.9024 63.2773 89.6166C64.0787 94.3308 66.2382 98.7087 69.4911 102.214L66.9495 111.696C66.7992 112.255 66.8183 112.847 67.0045 113.396C67.1906 113.945 67.5353 114.426 67.995 114.779C68.4548 115.132 69.0088 115.341 69.5872 115.379C70.1655 115.417 70.7421 115.282 71.244 114.992L81.1876 109.25C84.5662 110.148 88.0976 110.315 91.5458 109.74C94.9941 109.164 98.2799 107.86 101.184 105.913C104.088 103.967 106.543 101.423 108.385 98.4518C110.228 95.4808 111.415 92.1508 111.868 88.6843C112.321 85.2178 112.029 81.6946 111.012 78.3499C109.994 75.0052 108.275 71.9161 105.969 69.2888C103.662 66.6615 100.822 64.5566 97.6374 63.1145C94.4527 61.6725 90.997 60.9265 87.501 60.9265Z" fill="#76E8CD"/>
    <path d="M135.902 87.5851C135.934 86.3896 135.967 85.1533 135.912 83.8584C135.75 80.2555 134.2 76.8552 131.586 74.3699C128.973 71.8846 125.499 70.507 121.893 70.5259C116.1 57.2736 102.867 47.988 87.5037 47.988C72.1404 47.988 58.9074 57.2736 53.1152 70.5259C49.5078 70.5066 46.0329 71.8846 43.4193 74.371C40.8056 76.8575 39.256 80.2593 39.0955 83.8632C39.041 85.1523 39.074 86.3896 39.1058 87.5851C39.1396 88.8546 39.1746 90.1679 39.1121 91.6398C38.9591 95.3319 40.2756 98.9342 42.7734 101.657C45.2712 104.381 48.7465 106.003 52.4381 106.169C52.6424 106.178 52.8461 106.182 53.0494 106.182C54.8146 106.183 56.5638 105.847 58.2029 105.192C58.6195 105.062 59.0019 104.84 59.322 104.544C59.642 104.247 59.8918 103.883 60.0531 103.477C60.2143 103.072 60.2829 102.635 60.2538 102.2C60.2248 101.764 60.0988 101.341 59.8851 100.961C57.2405 96.2361 55.8523 90.9122 55.8533 85.498C55.8533 68.046 70.0525 53.8476 87.5037 53.8476C104.955 53.8476 119.154 68.0468 119.154 85.498C119.176 92.8853 116.604 100.046 111.887 105.731C107.171 111.417 100.608 115.266 93.3435 116.609C92.5785 114.877 91.2324 113.467 89.5379 112.622C87.8433 111.777 85.9069 111.551 84.0632 111.982C82.2196 112.414 80.5846 113.476 79.4409 114.985C78.2972 116.494 77.7167 118.355 77.7996 120.246C77.8826 122.138 78.6239 123.941 79.8953 125.344C81.1668 126.747 82.8884 127.662 84.7628 127.931C86.6371 128.199 88.5463 127.804 90.1604 126.814C91.7744 125.824 92.9919 124.301 93.6023 122.509C98.7625 121.656 103.688 119.734 108.062 116.868C112.437 114.001 116.165 110.253 119.008 105.862C119.977 106.074 120.966 106.181 121.959 106.182C122.163 106.182 122.367 106.178 122.571 106.169C126.262 106.002 129.737 104.38 132.234 101.657C134.731 98.9341 136.048 95.3325 135.895 91.641C135.833 90.1683 135.868 88.855 135.902 87.5851Z" fill="#004D5A"/>
    <path d="M135.898 87.5851C135.93 86.3896 135.963 85.1532 135.909 83.8583C135.743 80.1667 134.12 76.6915 131.397 74.194C128.673 71.6966 125.071 70.3808 121.378 70.5349C120.74 70.5639 120.104 70.6357 119.475 70.7497C119.054 70.8246 118.654 70.9908 118.304 71.2366C117.954 71.4824 117.662 71.8019 117.449 72.1726C117.235 72.5433 117.106 72.9563 117.069 73.3824C117.032 73.8086 117.089 74.2376 117.236 74.6394C118.796 78.9214 119.414 83.4895 119.048 88.0321C118.683 92.5748 117.342 96.9851 115.117 100.963C114.904 101.343 114.778 101.766 114.75 102.202C114.721 102.637 114.79 103.073 114.951 103.478C115.112 103.884 115.362 104.248 115.682 104.544C116.002 104.841 116.384 105.062 116.801 105.192C118.44 105.847 120.189 106.183 121.955 106.182C122.159 106.182 122.363 106.178 122.568 106.169C126.259 106.002 129.733 104.38 132.23 101.657C134.728 98.9341 136.044 95.3325 135.891 91.6409C135.829 90.1683 135.864 88.855 135.898 87.5851Z" fill="#004D5A"/>
    <path d="M59.8851 100.96C57.661 96.9827 56.3206 92.5725 55.9553 88.0301C55.5899 83.4877 56.2083 78.92 57.7682 74.6382C57.9149 74.2364 57.9719 73.8074 57.9352 73.3813C57.8984 72.9551 57.7688 72.5422 57.5554 72.1715C57.3421 71.8008 57.0501 71.4813 56.7001 71.2355C56.35 70.9897 55.9504 70.8235 55.5293 70.7486C54.8982 70.6343 54.2601 70.5625 53.6193 70.5337C49.9272 70.3807 46.325 71.6978 43.6025 74.1964C40.8799 76.695 39.2592 80.1712 39.0955 83.8628C39.041 85.1519 39.074 86.3892 39.1058 87.5847C39.1396 88.8542 39.1746 90.1675 39.1121 91.6394C38.9591 95.3315 40.2756 98.9338 42.7734 101.657C45.2712 104.38 48.7465 106.003 52.4381 106.168C52.6424 106.177 52.8461 106.182 53.0494 106.182C54.8146 106.183 56.5638 105.847 58.2029 105.191C58.6195 105.061 59.0019 104.84 59.322 104.543C59.642 104.247 59.8918 103.882 60.0531 103.477C60.2143 103.071 60.2829 102.635 60.2538 102.199C60.2248 101.764 60.0988 101.341 59.8851 100.96Z" fill="#004D5A"/>
    <path d="M77.745 88.4275C76.968 88.4282 76.2225 88.1203 75.6726 87.5714C75.1226 87.0225 74.8133 86.2776 74.8125 85.5006C74.8118 84.7236 75.1197 83.9782 75.6686 83.4282C76.2175 82.8783 76.9624 82.5689 77.7394 82.5681H77.745C78.522 82.5681 79.2672 82.8768 79.8166 83.4262C80.366 83.9756 80.6747 84.7208 80.6747 85.4978C80.6747 86.2748 80.366 87.02 79.8166 87.5694C79.2672 88.1188 78.522 88.4275 77.745 88.4275Z" fill="#004D5A"/>
    <path d="M87.5 88.4275C87.4035 88.4279 87.307 88.4233 87.211 88.4137C87.1159 88.4043 87.0214 88.39 86.9278 88.3709C86.834 88.3514 86.7402 88.3279 86.6485 88.3006C86.557 88.2727 86.467 88.2401 86.3789 88.2029C86.2902 88.1674 86.2035 88.1269 86.1192 88.0818C86.0352 88.0369 85.9531 87.9861 85.8731 87.9332C85.7934 87.8805 85.7165 87.8239 85.6426 87.7635C85.5684 87.7029 85.4961 87.6363 85.4277 87.5701C85.3594 87.5039 85.2949 87.4293 85.2344 87.3553C85.1739 87.2814 85.1171 87.2045 85.0645 87.1248C85.0117 87.0447 84.961 86.9627 84.916 86.8787C84.8711 86.7947 84.832 86.7068 84.7949 86.6189C84.7578 86.5308 84.7252 86.4409 84.6973 86.3494C84.6699 86.2574 84.6465 86.1637 84.627 86.0699C84.6074 85.9762 84.5938 85.8807 84.584 85.7869C84.5746 85.6909 84.57 85.5944 84.5703 85.4979C84.57 85.402 84.5746 85.3062 84.584 85.2107C84.5938 85.115 84.6094 85.0193 84.627 84.9256C84.6445 84.8318 84.6699 84.7381 84.6973 84.6482C84.7248 84.556 84.7574 84.4654 84.7949 84.3768C84.832 84.2889 84.8731 84.2029 84.916 84.1189C84.9613 84.0338 85.0109 83.951 85.0645 83.8709C85.1172 83.7928 85.1738 83.7146 85.2344 83.6404C85.2949 83.5662 85.3613 83.4939 85.4277 83.4256C85.4942 83.3572 85.5684 83.2947 85.6426 83.2324C85.7168 83.1738 85.793 83.1152 85.8731 83.0625C85.9531 83.0098 86.0352 82.9609 86.1192 82.916C86.2031 82.8711 86.291 82.8301 86.3789 82.793C86.4671 82.7565 86.557 82.7245 86.6485 82.6971C86.8319 82.6416 87.0203 82.6037 87.211 82.584C87.4025 82.5645 87.5956 82.5645 87.7871 82.584C87.883 82.5923 87.9782 82.6067 88.0723 82.627C88.1661 82.6443 88.2588 82.6677 88.3496 82.6971C88.4417 82.7245 88.5323 82.7565 88.6211 82.793C88.709 82.8301 88.7949 82.8711 88.8789 82.916C88.9634 82.9606 89.0455 83.0095 89.125 83.0625C89.2051 83.1152 89.2832 83.1738 89.3574 83.2324C89.4317 83.2947 89.5039 83.3594 89.5703 83.4256C89.6367 83.4918 89.7031 83.5664 89.7656 83.6404C89.8242 83.7146 89.8828 83.7928 89.9356 83.8709C89.9885 83.9511 90.0374 84.0338 90.082 84.1189C90.127 84.2029 90.168 84.2889 90.2051 84.3768C90.2422 84.4646 90.2735 84.5562 90.3028 84.6482C90.332 84.7402 90.3535 84.8318 90.3731 84.9256C90.3926 85.0193 90.4063 85.115 90.416 85.2107C90.4258 85.3064 90.4297 85.4021 90.4297 85.4979C90.4297 85.5936 90.4238 85.6912 90.416 85.7869C90.4082 85.8826 90.3906 85.9762 90.3731 86.0699C90.3555 86.1637 90.3301 86.2574 90.3028 86.3494C90.2754 86.4414 90.2422 86.5311 90.2051 86.6189C90.168 86.7068 90.127 86.7947 90.082 86.8787C90.0371 86.9627 89.9883 87.0447 89.9356 87.1248C89.8828 87.2049 89.8242 87.2811 89.7656 87.3553C89.7031 87.4293 89.6387 87.5018 89.5703 87.5701C89.502 87.6385 89.4317 87.7029 89.3574 87.7635C89.2828 87.8239 89.2053 87.8805 89.125 87.9332C89.0456 87.9869 88.9635 88.0366 88.8789 88.0818C88.7953 88.1269 88.7092 88.1673 88.6211 88.2029C88.5323 88.2401 88.4417 88.2727 88.3496 88.3006C88.2598 88.3279 88.166 88.3514 88.0723 88.3709C87.978 88.3902 87.8829 88.4044 87.7871 88.4137C87.6917 88.4233 87.5959 88.4279 87.5 88.4275Z" fill="#004D5A"/>
    <path d="M97.2684 88.4275C96.4914 88.4282 95.7459 88.1202 95.196 87.5713C94.646 87.0224 94.3367 86.2775 94.3359 85.5005C94.3352 84.7235 94.6432 83.9781 95.1921 83.4281C95.741 82.8782 96.4859 82.5688 97.2629 82.5681H97.2684C98.0454 82.5681 98.7905 82.8768 99.34 83.4262C99.8894 83.9756 100.198 84.7208 100.198 85.4978C100.198 86.2748 99.8894 87.02 99.34 87.5694C98.7905 88.1188 98.0454 88.4275 97.2684 88.4275Z" fill="#004D5A"/>
    <path d="M87.7892 127.761C92.1541 126.729 94.8561 122.354 93.8243 117.989C92.7925 113.625 88.4177 110.923 84.0528 111.954C79.6879 112.986 76.9858 117.361 78.0176 121.726C79.0494 126.091 83.4243 128.793 87.7892 127.761Z" fill="#FFDFB4"/>
    <path d="M116.807 105.191C116.421 105.071 116.065 104.872 115.76 104.608C115.455 104.344 115.208 104.019 115.035 103.655C114.861 103.291 114.764 102.895 114.751 102.492C114.737 102.088 114.808 101.686 114.957 101.312C112.681 105.277 109.569 108.7 105.837 111.341C102.105 113.983 97.8423 115.78 93.3457 116.608C94.1721 118.472 94.2645 120.58 93.6043 122.509C98.7646 121.656 103.69 119.734 108.065 116.867C112.439 114.001 116.167 110.252 119.01 105.862C118.258 105.699 117.521 105.475 116.807 105.191Z" fill="#004D5A"/>
    </svg>
    