<svg width="21" height="20" viewBox="0 0 21 20" fill="none" xmlns="http://www.w3.org/2000/svg">
    <path d="M3.64737 9.95197C2.85735 8.57443 2.47589 7.44957 2.24588 6.30935C1.9057 4.62299 2.68419 2.97568 3.97383 1.92457C4.51889 1.48032 5.14371 1.6321 5.46602 2.21034L6.19367 3.51576C6.77042 4.55048 7.0588 5.06783 7.0016 5.61633C6.9444 6.16483 6.55549 6.61156 5.77766 7.50501L3.64737 9.95197ZM3.64737 9.95197C5.24644 12.7402 7.75588 15.2511 10.5474 16.852M10.5474 16.852C11.9249 17.642 13.0498 18.0235 14.19 18.2535C15.8764 18.5937 17.5237 17.8152 18.5748 16.5255C19.019 15.9805 18.8673 15.3556 18.289 15.0333L16.9836 14.3057C15.9489 13.7289 15.4315 13.4406 14.883 13.4978C14.3345 13.555 13.8878 13.9439 12.9943 14.7217L10.5474 16.852Z" stroke="#004D5A" stroke-width="1.5" stroke-linejoin="round"/>
    </svg>
    