<svg width="60" height="60" viewBox="0 0 60 60" fill="none" xmlns="http://www.w3.org/2000/svg">
    <path d="M48.5412 16.6973C51.1167 19.4314 52.4997 22.5 52.4997 27.4743C52.4997 36.2228 46.3585 44.0658 37.4232 47.942L35.1915 44.498C43.5298 39.9865 45.1592 34.1348 45.8107 30.445C44.4682 31.1393 42.7107 31.3833 40.988 31.2238C36.477 30.8055 32.9217 27.1023 32.9217 22.5C32.9217 17.6675 36.8392 13.75 41.6717 13.75C44.3545 13.75 46.9198 14.9761 48.5412 16.6973ZM23.5412 16.6973C26.1167 19.4314 27.4998 22.5 27.4998 27.4743C27.4998 36.2228 21.3585 44.0658 12.4233 47.942L10.1915 44.498C18.5296 39.9865 20.1593 34.1348 20.8107 30.445C19.4682 31.1393 17.7108 31.3833 15.988 31.2238C11.477 30.8055 7.92188 27.1023 7.92188 22.5C7.92188 17.6675 11.8394 13.75 16.6719 13.75C19.3545 13.75 21.9198 14.9761 23.5412 16.6973Z" fill="#DDDDDD"/>
    </svg>
    