<svg width="21" height="20" viewBox="0 0 21 20" fill="none" xmlns="http://www.w3.org/2000/svg">
    <path d="M18.5918 7.82257C18.6997 8.24582 18.7701 8.6846 18.7992 9.13504C18.8439 9.82742 18.8439 10.5444 18.7992 11.2368C18.5707 14.7749 15.794 17.5931 12.3082 17.825C11.119 17.9041 9.87732 17.904 8.69051 17.825C8.28182 17.7978 7.83635 17.7002 7.45269 17.5421C7.02582 17.3662 6.81235 17.2782 6.70388 17.2915C6.5954 17.3049 6.43802 17.421 6.12325 17.6533C5.56825 18.0629 4.86907 18.3571 3.8322 18.3318C3.3079 18.319 3.04575 18.3126 2.92838 18.1124C2.81102 17.9121 2.95719 17.6349 3.24953 17.0805C3.65497 16.3116 3.91186 15.4313 3.5226 14.726C2.85221 13.7185 2.28276 12.5254 2.19955 11.2368C2.15484 10.5444 2.15484 9.82742 2.19955 9.13504C2.42802 5.59697 5.20467 2.77872 8.69051 2.54682C9.01236 2.52541 9.33824 2.5098 9.66602 2.49998" stroke="#004D5A" stroke-width="1.5" stroke-linecap="round" stroke-linejoin="round"/>
    <path d="M10.4956 10.4167H10.5031M13.8252 10.4167H13.8327M7.16602 10.4167H7.17349" stroke="#004D5A" stroke-width="2" stroke-linecap="round" stroke-linejoin="round"/>
    <path d="M18.8327 3.74997L12.166 3.74997M18.8327 3.74997C18.8327 3.16645 17.1708 2.07625 16.7493 1.66664M18.8327 3.74997C18.8327 4.3335 17.1708 5.4237 16.7493 5.83331" stroke="#004D5A" stroke-width="1.5" stroke-linecap="round" stroke-linejoin="round"/>
    </svg>
    