<svg width="11" height="12" viewBox="0 0 11 12" fill="none" xmlns="http://www.w3.org/2000/svg">
    <g clip-path="url(#clip0_3510_35356)">
    <path d="M6.41665 7.03209V7.98973C6.12991 7.88839 5.82141 7.83325 5.49998 7.83325C3.9812 7.83325 2.74998 9.06447 2.74998 10.5833H1.83331C1.83331 8.5582 3.47493 6.91659 5.49998 6.91659C5.8165 6.91659 6.12368 6.95669 6.41665 7.03209ZM5.49998 6.45825C3.9806 6.45825 2.74998 5.22763 2.74998 3.70825C2.74998 2.18888 3.9806 0.958252 5.49998 0.958252C7.01935 0.958252 8.24998 2.18888 8.24998 3.70825C8.24998 5.22763 7.01935 6.45825 5.49998 6.45825ZM5.49998 5.54159C6.5129 5.54159 7.33331 4.72117 7.33331 3.70825C7.33331 2.69534 6.5129 1.87492 5.49998 1.87492C4.48706 1.87492 3.66665 2.69534 3.66665 3.70825C3.66665 4.72117 4.48706 5.54159 5.49998 5.54159ZM8.24998 8.29159V6.91659H9.16665V8.29159H10.5416V9.20825H9.16665V10.5833H8.24998V9.20825H6.87498V8.29159H8.24998Z" fill="black"/>
    </g>
    <defs>
    <clipPath id="clip0_3510_35356">
    <rect width="11" height="11" fill="white" transform="translate(0 0.5)"/>
    </clipPath>
    </defs>
    </svg>
    