<svg width="21" height="20" viewBox="0 0 21 20" fill="none" xmlns="http://www.w3.org/2000/svg">
    <path d="M10.5013 18.3334C15.1037 18.3334 18.8346 14.6025 18.8346 10.0001C18.8346 5.39772 15.1037 1.66676 10.5013 1.66676C5.89893 1.66676 2.16797 5.39772 2.16797 10.0001C2.16797 11.1492 2.40053 12.2439 2.82115 13.2398C3.05362 13.7902 3.16985 14.0654 3.18424 14.2734C3.19864 14.4814 3.13742 14.7102 3.01498 15.1678L2.16797 18.3334L5.33361 17.4864C5.79121 17.364 6.02 17.3028 6.22799 17.3172C6.43597 17.3315 6.71118 17.4478 7.26159 17.6802C8.25751 18.1009 9.35225 18.3334 10.5013 18.3334Z" stroke="#004D5A" stroke-width="1.5" stroke-linejoin="round"/>
    <path d="M7.65745 10.3145L8.38323 9.41312C8.68912 9.03321 9.06727 8.6795 9.09687 8.17364C9.10435 8.04587 9.01445 7.47222 8.83465 6.32497C8.76399 5.8741 8.34304 5.83342 7.97842 5.83342C7.50327 5.83342 7.2657 5.83342 7.02978 5.94118C6.7316 6.07738 6.42547 6.46034 6.35829 6.78119C6.30514 7.03506 6.34464 7.20998 6.42364 7.55983C6.75917 9.04577 7.54633 10.5133 8.76689 11.7339C9.98744 12.9544 11.455 13.7416 12.9409 14.0771C13.2908 14.1561 13.4657 14.1956 13.7195 14.1424C14.0404 14.0753 14.4234 13.7691 14.5596 13.471C14.6673 13.235 14.6673 12.9975 14.6673 12.5223C14.6673 12.1577 14.6266 11.7367 14.1758 11.6661C13.0285 11.4863 12.4549 11.3964 12.3271 11.4039C11.8212 11.4335 11.4675 11.8116 11.0876 12.1175L10.1862 12.8433" stroke="#004D5A" stroke-width="1.5"/>
    </svg>
    